<svg id="Layer_1" data-name="Layer 1" xmlns="http://www.w3.org/2000/svg" viewBox="0 0 400 300" width="406" height="306" class="illustration styles_illustrationTablet__1DWOa"><title>#72_music_twocolour</title><path d="M193.83,160.81s7,20.71,26.27,18.47,19.07-48.35,19.07-48.35Z" fill="#68e1fd"></path><path d="M193.83,160.81s7,20.71,26.27,18.47,19.07-48.35,19.07-48.35Z" opacity="0.08"></path><rect x="225.64" y="70.59" width="6.74" height="3.66" transform="translate(-8.4 35.98) rotate(-8.82)" fill="#ffd200"></rect><rect x="225.64" y="70.59" width="6.74" height="3.66" transform="translate(-8.4 35.98) rotate(-8.82)" opacity="0.08"></rect><rect x="227.23" y="80.83" width="6.74" height="3.66" transform="translate(-9.95 36.34) rotate(-8.82)" fill="#ffd200"></rect><rect x="227.23" y="80.83" width="6.74" height="3.66" transform="translate(-9.95 36.34) rotate(-8.82)" opacity="0.08"></rect><rect x="228.62" y="90.24" width="6.74" height="3.66" transform="translate(-11.38 36.67) rotate(-8.82)" fill="#ffd200"></rect><rect x="228.62" y="90.24" width="6.74" height="3.66" transform="translate(-11.38 36.67) rotate(-8.82)" opacity="0.08"></rect><rect x="230.75" y="99.5" width="6.74" height="3.66" transform="translate(-12.77 37.1) rotate(-8.82)" fill="#ffd200"></rect><rect x="230.75" y="99.5" width="6.74" height="3.66" transform="translate(-12.77 37.1) rotate(-8.82)" opacity="0.08"></rect><rect x="232.23" y="108.95" width="6.74" height="3.66" transform="translate(-14.2 37.44) rotate(-8.82)" fill="#ffd200"></rect><rect x="232.23" y="108.95" width="6.74" height="3.66" transform="translate(-14.2 37.44) rotate(-8.82)" opacity="0.08"></rect><ellipse cx="209.64" cy="257.57" rx="148.4" ry="18.75" fill="#e6e6e6" opacity="0.45"></ellipse><path d="M210.54,43.11s.5,7.5-.86,12.45A3.79,3.79,0,0,1,205,58.19c-2.48-.72-5.63-2.42-6.39-6.4l-2.11-6.61A6.75,6.75,0,0,1,199.63,38C203.92,35.07,210.46,38.52,210.54,43.11Z" fill="#f4a28c"></path><polygon points="197.82 44.9 189.39 68.04 202.47 71.78 203.34 53.9 197.82 44.9" fill="#f4a28c"></polygon><path d="M195.73,41.85l-.32,9.65a5.11,5.11,0,0,0,6.2-1.91,6.27,6.27,0,0,0,.14-6.88c3.19.66,7.56-.76,8.88-.8.78,0-.16.58,0-2.82a7.76,7.76,0,0,0-4.76-4.66C202.06,33.06,195.4,34,195.73,41.85Z" fill="#24285b"></path><polygon points="210.61 47.63 212.76 51.32 210.34 51.88 210.61 47.63" fill="#f4a28c"></polygon><path d="M181.7,248.52s0,4.48,3.43,6.09,3.13,5.45-.42,5.18-10.32-7.43-10.32-7.43l2.12-5.07Z" fill="#68e1fd"></path><path d="M233.6,251.13s.81,4.4,4.51,5.34,4.09,4.77.55,5.17-11.53-5.37-11.53-5.37l1.14-5.38Z" fill="#68e1fd"></path><path d="M189.39,40.8s17.37,7.09,29.13,4.1L214,42.42a6.08,6.08,0,0,1-3-4.05l-1.75-8.06-12.85,1.31-.56,4.55a4.61,4.61,0,0,1-3.45,3.89Z" fill="#24285b"></path><path d="M169.93,64.65c2.52.46,5.06.88,7.61,1.16,8.31.93,26.61,3.53,41.69,9.56,20.21,8.08,24.83,60-18.18,95.83H156.31S128.6,115,136.1,85.58C142.11,62,162.15,63.23,169.93,64.65Z" fill="#68e1fd"></path><path d="M156.31,171.2l21.38,27.94a32.33,32.33,0,0,1,4.61,31l-6.36,17,8.08,3.79,10.86-20.83a42.26,42.26,0,0,0,.44-38.25l-6.76-13.71,12.49-6.9Z" fill="#24285b"></path><path d="M210.35,72.28s12.54,61.59-12.67,98.92h3.37s23.95-26,16.07-97.37C217.12,73.83,213,73,210.35,72.28Z" fill="#24285b"></path><path d="M169.93,64.65s37.69,37.3,6.58,106.55h-6.58S204.21,101,160,64.12A19,19,0,0,1,169.93,64.65Z" fill="#24285b"></path><path d="M164.73,78s10.34,18.19,7.74,34.93,43.88-33.49,43.88-33.49L223,105.85s-9.52,50.05-66.67,65.35L150,156.77S142.55,101.36,164.73,78Z" opacity="0.08"></path><path d="M209.22,54.68l5.54-1.34a10,10,0,0,1,12.19,8l13.55,77.2a8.32,8.32,0,0,0,15,3.32l9.72-13.92L299,170.34l-31,13.1a34.69,34.69,0,0,1-48.18-30.9L217,62.37a5.77,5.77,0,0,0-5.24-5.59l-2.45-.24A1,1,0,0,1,209.22,54.68Z" fill="#ffd200"></path><polygon points="201.05 171.2 235 250.89 225.77 250.89 183.06 178.1 201.05 171.2" fill="#24285b"></polygon><polygon points="182 66.36 190.08 61.44 196.78 68.87 192.1 74.79 182 66.36" fill="#24285b"></polygon><polygon points="196.78 68.87 202.92 65.27 205.72 71.31 200.06 75.86 196.78 68.87" fill="#24285b"></polygon><circle cx="196.43" cy="84.61" r="2.6" fill="#fff"></circle><circle cx="199.03" cy="123.53" r="2.6" fill="#fff"></circle><circle cx="194.61" cy="150.24" r="2.6" fill="#fff"></circle><circle cx="193.83" cy="105.85" r="2.6" fill="#fff"></circle><path d="M208.49,79s5-8.39,9.36-8,2.43,11.1-5.86,14Z" fill="#f4a28c"></path><path d="M166.53,89.37c3-17-17.83-27.42-29.51-14.76-4.91,5.32-8.42,12.93-8.42,23.85,0,36.08.29,56.86,21.36,58.31s63.12-72.16,63.12-72.16L207.69,78s-39.26,38.1-53.4,47.05A126.34,126.34,0,0,0,166.53,89.37Z" fill="#68e1fd"></path><path d="M166.53,89.37c3-17-17.83-27.42-29.51-14.76-4.91,5.32-8.42,12.93-8.42,23.85,0,36.08.29,56.86,21.36,58.31s63.12-72.16,63.12-72.16L207.69,78s-39.26,38.1-53.4,47.05A126.34,126.34,0,0,0,166.53,89.37Z" fill="#fff" opacity="0.46"></path><ellipse cx="283.35" cy="147.64" rx="10.57" ry="27.55" transform="translate(-32.58 195.33) rotate(-36.11)" fill="#ffd200"></ellipse><ellipse cx="283.35" cy="147.64" rx="10.57" ry="27.55" transform="translate(-32.58 195.33) rotate(-36.11)" fill="#fff" opacity="0.46"></ellipse><ellipse cx="284.25" cy="146.84" rx="5.12" ry="20.13" transform="translate(-31.93 195.71) rotate(-36.11)" fill="#ffd200"></ellipse><ellipse cx="284.25" cy="146.84" rx="5.12" ry="20.13" transform="translate(-31.93 195.71) rotate(-36.11)" opacity="0.08"></ellipse><path d="M195.86,35.62a52.06,52.06,0,0,0,14.65.68l1.33,4.13s-5.1,1-17.23-1.71Z" fill="#68e1fd"></path><path d="M239.17,130.93s5.11-9,0-12.65S231.2,126.64,239.17,130.93Z" fill="#f4a28c"></path><path d="M241,173.16a2.13,2.13,0,0,0-1.64,3.88,24.69,24.69,0,0,0,16.41,3.59,64.67,64.67,0,0,0,20-6,4.91,4.91,0,0,0,1.14-8h0a6.36,6.36,0,0,0-9.2.59C264,171.86,256.3,176.88,241,173.16Z" fill="#fff" opacity="0.16"></path><path d="M317.09,182.07a1.81,1.81,0,0,1,3.44,1.15l-8.72,26.11a12.07,12.07,0,0,1,7.35,3.93c3.68,3.86,4.71,8.86,2.3,11.16s-7.36,1.05-11-2.81c-2.81-3-4.06-6.55-3.43-9.11a2.48,2.48,0,0,1,0-.27Z" fill="#e6e6e6"></path><path d="M318.65,53.27l-19.06-1.2-.31-1.24a1.43,1.43,0,0,0-1.73-1,1.42,1.42,0,0,0-1,1.72l5.28,20.93a9.37,9.37,0,0,0-6,2.64c-3.11,2.8-4.21,6.64-2.46,8.58s5.69,1.25,8.8-1.54c2.37-2.14,3.56-4.88,3.21-6.93a.76.76,0,0,0,0-.21l-3.62-14.36Z" fill="#e6e6e6"></path><path d="M122.84,184.34l-22.76-1.58-.36-1.48a1.69,1.69,0,1,0-3.29.8l6.14,25a11.27,11.27,0,0,0-7.16,3.11c-3.73,3.32-5.07,7.9-3,10.23s6.78,1.54,10.51-1.78c2.85-2.53,4.29-5.8,3.9-8.24a2.09,2.09,0,0,0,0-.25L102.6,193Z" fill="#e6e6e6"></path><path d="M100.08,61.67,83.91,55a1.26,1.26,0,0,0-1.67.59l-8.17,17.2a8.32,8.32,0,0,0-5.55-1.57c-3.68.16-6.59,2.15-6.49,4.46s3.16,4,6.85,3.89c2.81-.12,5.16-1.31,6.08-2.9,0,0,.08-.09.11-.15L82.3,61.3l14,5.44L90.24,79.46a8.31,8.31,0,0,0-5.54-1.57c-3.69.16-6.6,2.15-6.5,4.46s3.17,4.05,6.85,3.89c2.81-.12,5.16-1.31,6.08-2.9,0,0,.08-.09.11-.15l9.44-19.85A1.26,1.26,0,0,0,100.08,61.67Z" fill="#e6e6e6"></path><circle cx="148.25" cy="27.75" r="4.75" fill="#e6e6e6" opacity="0.49"></circle><circle cx="327.33" cy="131.04" r="3.44" fill="#e6e6e6" opacity="0.49"></circle><circle cx="247.63" cy="210.11" r="2.38" fill="#e6e6e6" opacity="0.49"></circle><circle cx="145.88" cy="210.11" r="2.38" fill="#e6e6e6" opacity="0.49"></circle><circle cx="254.91" cy="46.45" r="3.56" fill="#e6e6e6" opacity="0.49"></circle><circle cx="78.28" cy="135.19" r="7.21" fill="#e6e6e6" opacity="0.49"></circle></svg>